<svg id="visual" viewBox="0 0 900 600" width="900" height="600" xmlns="http://www.w3.org/2000/svg" xmlns:xlink="http://www.w3.org/1999/xlink" version="1.1"><rect x="0" y="0" width="900" height="600" fill="#141f48"></rect><path d="M0 425L60 404L120 422L180 407L240 428L300 422L360 404L420 424L480 418L540 401L600 442L660 429L720 403L780 415L840 435L900 414L900 601L840 601L780 601L720 601L660 601L600 601L540 601L480 601L420 601L360 601L300 601L240 601L180 601L120 601L60 601L0 601Z" fill="#e79ddf"></path><path d="M0 437L60 462L120 450L180 462L240 442L300 421L360 450L420 454L480 459L540 473L600 428L660 425L720 448L780 440L840 429L900 449L900 601L840 601L780 601L720 601L660 601L600 601L540 601L480 601L420 601L360 601L300 601L240 601L180 601L120 601L60 601L0 601Z" fill="#d5a2eb"></path><path d="M0 473L60 443L120 468L180 482L240 465L300 462L360 456L420 457L480 477L540 490L600 467L660 462L720 487L780 487L840 449L900 462L900 601L840 601L780 601L720 601L660 601L600 601L540 601L480 601L420 601L360 601L300 601L240 601L180 601L120 601L60 601L0 601Z" fill="#c0a7f5"></path><path d="M0 492L60 496L120 493L180 502L240 498L300 479L360 475L420 498L480 485L540 508L600 487L660 475L720 502L780 502L840 509L900 483L900 601L840 601L780 601L720 601L660 601L600 601L540 601L480 601L420 601L360 601L300 601L240 601L180 601L120 601L60 601L0 601Z" fill="#a8acfc"></path><path d="M0 493L60 501L120 520L180 506L240 493L300 497L360 506L420 520L480 505L540 495L600 517L660 508L720 522L780 524L840 520L900 513L900 601L840 601L780 601L720 601L660 601L600 601L540 601L480 601L420 601L360 601L300 601L240 601L180 601L120 601L60 601L0 601Z" fill="#8db2ff"></path><path d="M0 514L60 517L120 528L180 544L240 535L300 520L360 512L420 538L480 528L540 531L600 526L660 513L720 537L780 537L840 543L900 548L900 601L840 601L780 601L720 601L660 601L600 601L540 601L480 601L420 601L360 601L300 601L240 601L180 601L120 601L60 601L0 601Z" fill="#70b6ff"></path><path d="M0 561L60 552L120 539L180 536L240 552L300 563L360 541L420 553L480 556L540 551L600 552L660 544L720 541L780 540L840 552L900 560L900 601L840 601L780 601L720 601L660 601L600 601L540 601L480 601L420 601L360 601L300 601L240 601L180 601L120 601L60 601L0 601Z" fill="#50bafa"></path><path d="M0 565L60 570L120 571L180 563L240 579L300 569L360 578L420 580L480 574L540 570L600 579L660 567L720 577L780 577L840 583L900 580L900 601L840 601L780 601L720 601L660 601L600 601L540 601L480 601L420 601L360 601L300 601L240 601L180 601L120 601L60 601L0 601Z" fill="#2bbdf3"></path></svg>