<svg id="visual" viewBox="0 0 900 600" width="900" height="600" xmlns="http://www.w3.org/2000/svg" xmlns:xlink="http://www.w3.org/1999/xlink" version="1.1"><rect x="0" y="0" width="900" height="600" fill="#0f152e"></rect><path d="M0 162L60 184L120 196L180 161L240 165L300 177L360 189L420 164L480 169L540 194L600 147L660 170L720 165L780 140L840 200L900 193L900 0L840 0L780 0L720 0L660 0L600 0L540 0L480 0L420 0L360 0L300 0L240 0L180 0L120 0L60 0L0 0Z" fill="#e79ddf"></path><path d="M0 126L60 169L120 113L180 143L240 142L300 113L360 118L420 162L480 121L540 130L600 141L660 173L720 134L780 147L840 148L900 137L900 0L840 0L780 0L720 0L660 0L600 0L540 0L480 0L420 0L360 0L300 0L240 0L180 0L120 0L60 0L0 0Z" fill="#cda4f0"></path><path d="M0 134L60 134L120 136L180 142L240 98L300 136L360 109L420 100L480 117L540 137L600 102L660 130L720 106L780 134L840 110L900 100L900 0L840 0L780 0L720 0L660 0L600 0L540 0L480 0L420 0L360 0L300 0L240 0L180 0L120 0L60 0L0 0Z" fill="#adabfb"></path><path d="M0 109L60 70L120 100L180 80L240 106L300 106L360 91L420 96L480 77L540 80L600 102L660 67L720 71L780 93L840 70L900 80L900 0L840 0L780 0L720 0L660 0L600 0L540 0L480 0L420 0L360 0L300 0L240 0L180 0L120 0L60 0L0 0Z" fill="#88b3ff"></path><path d="M0 60L60 75L120 43L180 64L240 56L300 57L360 80L420 47L480 67L540 72L600 53L660 53L720 54L780 60L840 68L900 59L900 0L840 0L780 0L720 0L660 0L600 0L540 0L480 0L420 0L360 0L300 0L240 0L180 0L120 0L60 0L0 0Z" fill="#5eb9fd"></path><path d="M0 31L60 18L120 33L180 41L240 30L300 47L360 36L420 42L480 23L540 23L600 44L660 45L720 32L780 27L840 29L900 38L900 0L840 0L780 0L720 0L660 0L600 0L540 0L480 0L420 0L360 0L300 0L240 0L180 0L120 0L60 0L0 0Z" fill="#2bbdf3"></path></svg>