<svg id="visual" viewBox="0 0 900 600" width="900" height="600" xmlns="http://www.w3.org/2000/svg" xmlns:xlink="http://www.w3.org/1999/xlink" version="1.1"><path d="M0 157L82 145L164 103L245 103L327 115L409 175L491 91L573 121L655 241L736 151L818 199L900 217L900 0L818 0L736 0L655 0L573 0L491 0L409 0L327 0L245 0L164 0L82 0L0 0Z" fill="#0f152e"></path><path d="M0 265L82 355L164 325L245 337L327 295L409 349L491 253L573 301L655 403L736 331L818 301L900 337L900 215L818 197L736 149L655 239L573 119L491 89L409 173L327 113L245 101L164 101L82 143L0 155Z" fill="#111831"></path><path d="M0 361L82 397L164 385L245 439L327 373L409 427L491 325L573 397L655 457L736 403L818 337L900 397L900 335L818 299L736 329L655 401L573 299L491 251L409 347L327 293L245 335L164 323L82 353L0 263Z" fill="#141a34"></path><path d="M0 451L82 481L164 439L245 529L327 403L409 511L491 409L573 451L655 499L736 487L818 397L900 457L900 395L818 335L736 401L655 455L573 395L491 323L409 425L327 371L245 437L164 383L82 395L0 359Z" fill="#141a34"></path><path d="M0 529L82 553L164 565L245 571L327 523L409 571L491 547L573 523L655 553L736 535L818 517L900 523L900 455L818 395L736 485L655 497L573 449L491 407L409 509L327 401L245 527L164 437L82 479L0 449Z" fill="#111831"></path><path d="M0 601L82 601L164 601L245 601L327 601L409 601L491 601L573 601L655 601L736 601L818 601L900 601L900 521L818 515L736 533L655 551L573 521L491 545L409 569L327 521L245 569L164 563L82 551L0 527Z" fill="#0f152e"></path></svg>