<svg id="visual" viewBox="0 0 900 600" width="900" height="600" xmlns="http://www.w3.org/2000/svg" xmlns:xlink="http://www.w3.org/1999/xlink" version="1.1"><path d="M0 43L90 67L180 31L270 25L360 55L450 7L540 13L630 97L720 37L810 43L900 103L900 0L810 0L720 0L630 0L540 0L450 0L360 0L270 0L180 0L90 0L0 0Z" fill="#141a34"></path><path d="M0 91L90 151L180 145L270 61L360 163L450 91L540 133L630 175L720 133L810 109L900 211L900 101L810 41L720 35L630 95L540 11L450 5L360 53L270 23L180 29L90 65L0 41Z" fill="#151b35"></path><path d="M0 175L90 163L180 283L270 97L360 211L450 265L540 169L630 283L720 139L810 289L900 343L900 209L810 107L720 131L630 173L540 131L450 89L360 161L270 59L180 143L90 149L0 89Z" fill="#151b35"></path><path d="M0 181L90 187L180 307L270 175L360 211L450 331L540 169L630 307L720 217L810 307L900 349L900 341L810 287L720 137L630 281L540 167L450 263L360 209L270 95L180 281L90 161L0 173Z" fill="#161c36"></path><path d="M0 319L90 217L180 469L270 319L360 355L450 463L540 337L630 349L720 385L810 439L900 445L900 347L810 305L720 215L630 305L540 167L450 329L360 209L270 173L180 305L90 185L0 179Z" fill="#171d37"></path><path d="M0 475L90 589L180 523L270 565L360 589L450 589L540 547L630 517L720 547L810 547L900 535L900 443L810 437L720 383L630 347L540 335L450 461L360 353L270 317L180 467L90 215L0 317Z" fill="#171e38"></path><path d="M0 601L90 601L180 601L270 601L360 601L450 601L540 601L630 601L720 601L810 601L900 601L900 533L810 545L720 545L630 515L540 545L450 587L360 587L270 563L180 521L90 587L0 473Z" fill="#181f39"></path></svg>