<svg id="visual" viewBox="0 0 900 600" width="900" height="600" xmlns="http://www.w3.org/2000/svg" xmlns:xlink="http://www.w3.org/1999/xlink" version="1.1"><rect x="0" y="0" width="900" height="600" fill="#1e243e"></rect><path d="M0 189L60 180L120 136L180 163L240 174L300 141L360 195L420 166L480 194L540 159L600 167L660 181L720 139L780 185L840 163L900 177L900 0L840 0L780 0L720 0L660 0L600 0L540 0L480 0L420 0L360 0L300 0L240 0L180 0L120 0L60 0L0 0Z" fill="#181f39"></path><path d="M0 173L60 165L120 161L180 163L240 127L300 114L360 122L420 158L480 118L540 123L600 171L660 114L720 156L780 147L840 137L900 161L900 0L840 0L780 0L720 0L660 0L600 0L540 0L480 0L420 0L360 0L300 0L240 0L180 0L120 0L60 0L0 0Z" fill="#171e38"></path><path d="M0 115L60 111L120 104L180 116L240 131L300 89L360 89L420 110L480 109L540 142L600 124L660 123L720 116L780 92L840 110L900 100L900 0L840 0L780 0L720 0L660 0L600 0L540 0L480 0L420 0L360 0L300 0L240 0L180 0L120 0L60 0L0 0Z" fill="#161d37"></path><path d="M0 100L60 107L120 72L180 86L240 91L300 77L360 99L420 97L480 100L540 94L600 105L660 69L720 89L780 104L840 80L900 105L900 0L840 0L780 0L720 0L660 0L600 0L540 0L480 0L420 0L360 0L300 0L240 0L180 0L120 0L60 0L0 0Z" fill="#161c36"></path><path d="M0 46L60 57L120 61L180 41L240 53L300 41L360 47L420 73L480 69L540 52L600 52L660 53L720 64L780 72L840 43L900 49L900 0L840 0L780 0L720 0L660 0L600 0L540 0L480 0L420 0L360 0L300 0L240 0L180 0L120 0L60 0L0 0Z" fill="#151b35"></path><path d="M0 16L60 24L120 17L180 23L240 18L300 40L360 35L420 17L480 29L540 43L600 19L660 27L720 22L780 42L840 24L900 42L900 0L840 0L780 0L720 0L660 0L600 0L540 0L480 0L420 0L360 0L300 0L240 0L180 0L120 0L60 0L0 0Z" fill="#141a34"></path></svg>