<svg id="visual" viewBox="0 0 900 600" width="900" height="600" xmlns="http://www.w3.org/2000/svg" xmlns:xlink="http://www.w3.org/1999/xlink" version="1.1"><rect x="0" y="0" width="900" height="600" fill="#242a42"></rect><path d="M0 140L150 119L300 110L450 117L600 110L750 138L900 139L900 0L750 0L600 0L450 0L300 0L150 0L0 0Z" fill="#141a34"></path><path d="M0 98L150 99L300 128L450 93L600 129L750 97L900 105L900 0L750 0L600 0L450 0L300 0L150 0L0 0Z" fill="#161c36"></path><path d="M0 77L150 75L300 96L450 95L600 70L750 88L900 107L900 0L750 0L600 0L450 0L300 0L150 0L0 0Z" fill="#181e38"></path><path d="M0 63L150 71L300 65L450 83L600 57L750 59L900 50L900 0L750 0L600 0L450 0L300 0L150 0L0 0Z" fill="#1a203a"></path><path d="M0 38L150 45L300 60L450 39L600 34L750 43L900 55L900 0L750 0L600 0L450 0L300 0L150 0L0 0Z" fill="#1c223c"></path><path d="M0 33L150 19L300 25L450 21L600 26L750 12L900 37L900 0L750 0L600 0L450 0L300 0L150 0L0 0Z" fill="#1e243e"></path></svg>