<?xml version="1.0" encoding="utf-8"?>
<!-- Generator: Adobe Illustrator 28.0.0, SVG Export Plug-In . SVG Version: 6.00 Build 0)  -->
<svg version="1.1" xmlns="http://www.w3.org/2000/svg" xmlns:xlink="http://www.w3.org/1999/xlink" x="0px" y="0px"
	 viewBox="0 0 500 500" style="enable-background:new 0 0 500 500;" xml:space="preserve">
<style type="text/css">
	.st0{fill:#000058;}
	.st1{fill:#9493F4;}
</style>
<g id="Layer_1">
	<path class="st0" d="M405.8,183.3V224c0,1.7-1,2.3-3.3,2.3c-1,0-2.1-0.1-3.3-0.1c-13.3,0-25.9,2.9-37.3,8l0.6-0.2
		c-4.2,1.9-7.7,4.5-10.6,7.7l0,0v106.2c0,2.1-0.8,2.9-2.7,2.9h-41c-0.1,0-0.3,0-0.4,0c-1.5,0-2.7-1.1-2.9-2.5l0,0V232.1l-0.2-15.6
		l-0.4-16.2c0-4.8-0.4-9.4-0.8-14.2c0-0.1,0-0.2,0-0.3c0-0.9,0.6-1.7,1.5-2l0,0h37.1c2,0,3.7,1.4,4.2,3.3l0,0
		c1.7,5.5,2.7,11.8,2.7,18.3c0,0.3,0,0.6,0,0.9v0c6.3-7.2,13.7-13.2,22.1-17.7l0.4-0.2c9-5.1,19.8-8.1,31.4-8.1c0.1,0,0.2,0,0.3,0h0
		c0.1,0,0.2,0,0.3,0c1.3,0,2.4,1,2.6,2.3l0,0L405.8,183.3z M263.7,249c-8.3,11.5-19.8,20.3-33,25.3l-0.5,0.2
		c-12.9,4.5-27.8,7.1-43.3,7.1c-1.3,0-2.5,0-3.8-0.1l0.2,0l-10.4-0.2l-9-0.2v66.9c0,0.1,0,0.3,0,0.4c0,1.3-1,2.4-2.3,2.5h-40.4
		c-1.7,0-2.5-0.8-2.5-2.7V133.8c0-1.5,0.6-2.3,2.1-2.3l11.7-0.2l15.8-0.4l18.1-0.4l19-0.2c1,0,2.3-0.1,3.5-0.1
		c14.1,0,27.6,2.4,40.3,6.8l-0.9-0.3c10.9,3.8,20.2,9.6,27.9,17.1l0,0c6.5,6.6,11.7,14.5,15.1,23.3l0.2,0.5c3,8.1,4.8,17.4,4.8,27.1
		v0c0,0.9,0.1,1.9,0.1,3c0,15.4-4.7,29.8-12.7,41.7L263.7,249L263.7,249z M411.5,6.3H88.5C39.6,6.3,0,45.9,0,94.8v310.5
		c0,48.9,39.6,88.5,88.5,88.5h323.1c48.9,0,88.5-39.6,88.5-88.5v-0.1v0V94.8v-0.1C500,45.9,460.4,6.2,411.5,6.3L411.5,6.3L411.5,6.3
		L411.5,6.3z"/>
</g>
<g id="Isolation_Mode">
	<path class="st1" d="M405.8,183.3V224c0,1.7-1,2.3-3.3,2.3c-1,0-2.1-0.1-3.3-0.1c-13.3,0-25.9,2.9-37.3,8l0.6-0.2
		c-4.2,1.9-7.7,4.5-10.6,7.7l0,0v106.2c0,2.1-0.8,2.9-2.7,2.9h-41c-0.1,0-0.3,0-0.4,0c-1.5,0-2.7-1.1-2.9-2.5l0,0V232.1l-0.2-15.6
		l-0.4-16.2c0-4.8-0.4-9.4-0.8-14.2c0-0.1,0-0.2,0-0.3c0-0.9,0.6-1.7,1.5-2l0,0h37.1c2,0,3.7,1.4,4.2,3.3l0,0
		c1.7,5.5,2.7,11.8,2.7,18.3c0,0.3,0,0.6,0,0.9v0c6.3-7.2,13.7-13.2,22.1-17.7l0.4-0.2c9-5.1,19.8-8.1,31.4-8.1c0.1,0,0.2,0,0.3,0h0
		c0.1,0,0.2,0,0.3,0c1.3,0,2.4,1,2.6,2.3l0,0L405.8,183.3z"/>
	<path class="st1" d="M263.7,249c-8.3,11.5-19.8,20.3-33,25.3l-0.5,0.2c-12.9,4.5-27.8,7.1-43.3,7.1c-1.3,0-2.5,0-3.8-0.1l0.2,0
		l-10.4-0.2l-9-0.2v66.9c0,0.1,0,0.3,0,0.4c0,1.3-1,2.4-2.3,2.5h-40.4c-1.7,0-2.5-0.8-2.5-2.7V133.8c0-1.5,0.6-2.3,2.1-2.3l11.7-0.2
		l15.8-0.4l18.1-0.4l19-0.2c1,0,2.3-0.1,3.5-0.1c14.1,0,27.6,2.4,40.3,6.8l-0.9-0.3c10.9,3.8,20.2,9.6,27.9,17.1l0,0
		c6.5,6.6,11.7,14.5,15.1,23.3l0.2,0.5c3,8.1,4.8,17.4,4.8,27.1v0c0,0.9,0.1,1.9,0.1,3c0,15.4-4.7,29.8-12.7,41.7L263.7,249
		L263.7,249z"/>
	<path class="st0" d="M211.4,178.6c-6.6-2.7-14.3-4.2-22.3-4.2c-0.8,0-1.6,0-2.4,0l0.1,0c-7.6-0.2-15.1,0-22.7,0.4v70l8.1,0.4h11.1
		c8.5,0,16.7-1.4,24.4-3.9l-0.6,0.2c6.9-2.1,12.7-5.9,17-11l0,0c4.1-5.3,6.5-12.1,6.5-19.4c0-0.7,0-1.4-0.1-2.1l0,0.1
		c0.1-0.7,0.1-1.4,0.1-2.2c0-12.8-8-23.8-19.2-28.2L211.4,178.6L211.4,178.6z"/>
</g>
</svg>
