<?xml version="1.0" encoding="utf-8"?>
<!-- Generator: Adobe Illustrator 28.0.0, SVG Export Plug-In . SVG Version: 6.00 Build 0)  -->
<svg version="1.1" xmlns="http://www.w3.org/2000/svg" xmlns:xlink="http://www.w3.org/1999/xlink" x="0px" y="0px"
	 viewBox="0 0 500 500" style="enable-background:new 0 0 500 500;" xml:space="preserve">
<style type="text/css">
	.st0{fill:#03005B;}
	.st1{fill:#9493F4;}
</style>
<g id="Layer_1">
	<path class="st0" d="M411.5,6.5h-323C39.6,6.5,0,46.1,0,94.9V95v0v310.5C0,454.4,39.6,494,88.5,494h323.1
		c48.9,0,88.5-39.6,88.5-88.5v-0.1v0V95v-0.1C500,46.1,460.4,6.5,411.5,6.5L411.5,6.5L411.5,6.5L411.5,6.5z"/>
</g>
<g id="Isolation_Mode">
	<path class="st1" d="M428.4,267.3c-0.4,3.9-0.6,6.9-0.9,8.7c-0.2,1.5-1.4,2.6-2.9,2.7l0,0c-1.2,0-3.5,0.2-6.9,0.4
		c-3.3,0.4-7.1,0.6-11,0.6c-0.4,0-0.8,0-1.2,0h0.1c-4.8,0-9.8-0.8-15.2-0.8h-66c0.8,7,3.1,13.2,6.6,18.7l-0.1-0.2
		c3.7,5.6,8.9,9.9,15,12.4l0.2,0.1c7.5,3.3,16.3,5.2,25.5,5.2c0.4,0,0.8,0,1.3,0h-0.1c7.8-0.2,15.2-1,22.5-2.4l-0.8,0.1
		c6.9-0.9,13.2-2.6,19.1-5l-0.5,0.2c1-0.8,1.7-0.4,1.7,1.7v31.9c0,0.9-0.2,1.7-0.5,2.5l0-0.1c-0.4,0.6-0.9,1.1-1.4,1.4l0,0
		c-6,2.7-13,4.9-20.3,6.2l-0.5,0.1c-8,1.6-17.2,2.5-26.6,2.5c-1.1,0-2.1,0-3.2,0l0.2,0c-0.8,0-1.7,0-2.7,0c-13.5,0-26.3-2.7-38-7.6
		l0.7,0.2c-10.5-4.6-19.3-11.3-26.2-19.7l-0.1-0.1c-6.3-7.7-11.3-16.8-14.2-26.7l-0.1-0.5c-2.8-9.1-4.4-19.6-4.4-30.4
		c0-11.9,1.9-23.3,5.4-33.9l-0.2,0.8c3.6-11,8.9-20.5,15.7-28.7l-0.1,0.1c6.8-8.2,15.2-14.9,24.7-19.6l0.4-0.2
		c9.2-4.1,20-6.5,31.4-6.5c1.2,0,2.4,0,3.6,0.1l-0.2,0c0.5,0,1.1,0,1.8,0c11.1,0,21.6,2.4,31,6.7l-0.5-0.2
		c8.8,3.9,16.1,9.5,21.8,16.6l0.1,0.1c5.3,6.8,9.6,14.7,12.4,23.2l0.2,0.5c2.5,7.5,3.9,16.2,3.9,25.2v0.2v0
		C428.8,259,428.5,263.3,428.4,267.3L428.4,267.3z"/>
	<path class="st1" d="M264.8,350.4h-43.5c-0.1,0-0.2,0-0.3,0c-1.4,0-2.7-1-3-2.3l0,0l-17.1-50h-77.5l-15.8,49.2
		c-0.3,1.7-1.8,2.9-3.6,2.9c-0.1,0-0.3,0-0.4,0l0,0H64.4c-2.3,0-2.9-1.2-2.3-3.7l67.1-192.3c0.6-2.1,1.2-4,2.1-6.5
		c0.8-4,1.2-8.7,1.2-13.4v-0.1v0c0-0.1,0-0.2,0-0.3c0-1,0.7-1.8,1.7-2l0,0h54c1.5,0,2.5,0.6,2.7,1.7l76,213.5
		C267.5,349.4,266.9,350.4,264.8,350.4L264.8,350.4z"/>
	<path class="st0" d="M356.7,217.7c-0.5,0-1.1,0-1.6,0c-11.3,0-21.1,6.4-26,15.7l-0.1,0.2c-2.3,4.3-3.9,9.4-4.6,14.8l0,0.2h43.9
		c5.4,0,9.4,0,11.9-0.2c1.8-0.2,3.4-0.8,4.8-1.7l0,0v-2.1v0c0-2.8-0.5-5.4-1.3-7.9l0.1,0.2c-3.6-11.2-14-19.2-26.2-19.2
		C357.2,217.7,356.9,217.7,356.7,217.7L356.7,217.7L356.7,217.7z"/>
	<path class="st0" d="M177.9,223.8c-2.1-6.5-4-12.7-6-19.2c-2.1-6.5-4-12.5-5.6-18.5c-1.7-5.8-3.1-11.3-4.6-16.3h-0.4
		c-2.2,10.9-4.7,19.9-7.6,28.7l0.5-1.8c-3.1,10-6.2,20.4-9.6,30.8c-2.7,10.6-6,20.4-9.2,29.2h52.9c-1.2-4.4-2.9-9.6-4.8-15
		C181.7,236,179.8,230,177.9,223.8L177.9,223.8z"/>
</g>
</svg>
