<?xml version="1.0" encoding="utf-8"?>
<!-- Generator: Adobe Illustrator 28.0.0, SVG Export Plug-In . SVG Version: 6.00 Build 0)  -->
<svg version="1.1" id="Layer_1" transform="rotate(0) scale(1, 1)"
	 xmlns="http://www.w3.org/2000/svg" xmlns:xlink="http://www.w3.org/1999/xlink" x="0px" y="0px" viewBox="0 0 500 500"
	 style="enable-background:new 0 0 500 500;" xml:space="preserve">
<style type="text/css">
	.st0{fill:#000153;}
	.st1{fill:#9493F4;}
</style>
<path class="st0" d="M88.5,6.2h322.9c49,0,88.5,39.6,88.5,88.5v310.4c0,49-39.6,88.5-88.5,88.5H88.5c-49,0-88.5-39.6-88.5-88.5V94.8
	C0,45.8,39.6,6.2,88.5,6.2z"/>
<path class="st1" d="M239.2,309v34.6c0.2,2.1-0.8,4-2.7,4.8c-6.5,2.3-12.9,3.8-19.8,4.6c-8.8,1-17.5,1.5-26.2,1.5
	c-12.5,0-25-1.5-37.1-4.6c-11.2-2.9-22.1-7.5-32.1-13.8c-9.6-6-17.9-13.8-24.8-22.7c-7.1-9.4-12.7-20-16-31.2
	c-4-13.1-5.8-26.7-5.6-40.2c0-22.5,5-42.5,14.8-59.6s24.4-31,41.9-40c20-10.2,42.3-15.4,64.8-15c8.7,0,17.3,0.4,26,1.2
	c6,0.6,11.9,2.1,17.7,4c1.2,1,1.9,2.5,1.7,4v37.7c0,2.1-0.8,2.7-2.3,2.1c-6.2-2.9-13.1-5-20-6c-8.1-1.2-16.2-1.9-24.6-1.9
	c-13.5-0.2-26.9,2.9-38.5,9.4c-10.4,5.8-19.2,14.4-24.8,25c-6,11.7-9,24.6-8.8,37.7c-0.2,9.4,1.2,18.5,4.2,27.5
	c2.5,7.5,6.5,14.4,11.7,20.4c4.6,5.6,10.4,10.2,16.7,13.8c6.2,3.3,12.9,5.8,20,7.5c6.7,1.9,13.8,2.9,20.6,3.1c7.5,0,15.2-0.2,22.7-1
	c6.2-0.8,12.3-2.3,18.1-4.6c0.8-0.6,1.5-0.8,2.1-0.4C239.2,307.3,239.4,308.1,239.2,309z"/>
<path class="st1" d="M316.2,229.8v117.5c0,1.9-0.8,2.7-2.3,2.7h-41.9c-1.5,0.2-2.7-0.8-2.9-2.3c0-0.2,0-0.4,0-0.8V115.4
	c0-1.5,0.8-2.3,2.7-2.3h42.3c1-0.2,2.3,0.6,2.3,1.7c0,0.2,0,0.4,0,0.6l0.2,79.2c6-4,12.5-7.3,19.4-9.8c7.1-2.5,15.2-3.1,24.6-3.1
	c6.7,0,13.3,1,19.6,2.9c6.7,1.9,12.9,5.2,18.3,9.8c5.6,5,9.6,11.9,12.9,20.4c3.3,8.5,5,19.8,5,33.3v98.7c0,2.1-0.8,2.9-2.7,2.9
	h-39.4c-1.7,0.2-3.1-0.8-3.3-2.5c0-0.2,0-0.6,0-0.8v-93.8c0.2-6-0.8-12.1-3.1-17.7c-1.9-4.2-4.8-7.9-8.8-10.6
	c-4.6-2.7-10-4-15.4-3.8c-5,0-10,0.6-14.8,2.1C324.4,224.6,320,226.9,316.2,229.8z"/>
</svg>
