<?xml version="1.0" encoding="utf-8"?>
<!-- Generator: Adobe Illustrator 28.0.0, SVG Export Plug-In . SVG Version: 6.00 Build 0)  -->
<svg version="1.1" xmlns="http://www.w3.org/2000/svg" xmlns:xlink="http://www.w3.org/1999/xlink" x="0px" y="0px"
	 viewBox="0 0 500 500" style="enable-background:new 0 0 500 500;" xml:space="preserve">
<style type="text/css">
	.st0{fill:#300001;}
	.st1{fill:#FF9700;}
</style>
<g id="Layer_1">
	<path class="st0" d="M500,83.3v333.3c0,45.8-37.5,83.3-83.3,83.3H83.3C37.5,500,0,462.5,0,416.7V83.3C0,37.5,37.5,0,83.3,0h333.3
		C462.5,0,500,37.5,500,83.3z"/>
</g>
<g id="Isolation_Mode">
	<polygon class="st1" points="316.8,372.2 239.2,133.5 183.6,133.5 107.1,372.2 152.1,372.2 172.6,304.5 248.4,304.5 270,372.2 	"/>
	<rect x="346.5" y="199.7" class="st1" width="43.9" height="172.5"/>
	<path class="st1" d="M392.9,151.5c-0.4-13.5-9.6-23.7-24.4-23.7c-14.5,0-24.4,10.3-24.4,23.7c0,13.1,9.6,23.4,24.1,23.4
		C383.3,174.9,392.9,164.6,392.9,151.5z"/>
	<path class="st0" d="M222.2,212.8l18.8,58.8h-61.3l18.4-58.8c4.3-14.2,7.8-30.8,11.3-44.6h0.7C213.7,182,217.6,198.3,222.2,212.8z"
		/>
</g>
</svg>
