<?xml version="1.0" encoding="utf-8"?>
<!-- Generator: Adobe Illustrator 28.0.0, SVG Export Plug-In . SVG Version: 6.00 Build 0)  -->
<svg version="1.1" xmlns="http://www.w3.org/2000/svg" xmlns:xlink="http://www.w3.org/1999/xlink" x="0px" y="0px"
	 viewBox="0 0 500 500" style="enable-background:new 0 0 500 500;" xml:space="preserve">
<style type="text/css">
	.st0{fill:#F5792A;}
	.st1{fill:#33638F;}
</style>
<g id="Layer_1">
	<path class="st0" d="M263.2,46.9v0.2c-7,0-14.1,2-19.8,5.9c-11.4,8-12.7,21.1-2.5,29.5l65,52.5l-198.4,0.7h-0.2
		c-16.4,0-32.3,10.7-35.4,24.3c-3.6,13.9,7.7,25.5,25,25.5l100.7-0.2L17.4,323.7c-17.3,13-22.5,34.5-11.8,48.2
		c10.9,13.9,33.9,13.9,51.4,0l97.7-80.2c0,0-1.6,10.9-1.4,17.3c0,6.6,2.3,19.3,5.2,29.1c6.6,21.1,17.7,40.4,33.2,57.5
		c15.9,17.5,35.7,31.6,58.4,41.6c23.4,10.7,49.3,16.1,75.9,16.1c26.4,0,52.5-5.7,76.1-16.4c22.7-10,42.3-24.3,58.2-41.8
		c15.5-17,26.6-36.6,33.2-57.5c3.2-10.7,5.2-21.4,6.6-32c0-10.7,0-21.4-1.4-32c-3-20.7-10-40.2-21.4-57.9
		c-10-16.1-22.7-30.4-38.4-42.5L282.3,52.8C277.1,49,270.3,46.9,263.2,46.9 M325.9,185.3c26.4,0,51.1,8.6,70.9,24.5
		c10,8.2,18,17.7,23.6,28.4c6.1,10.5,10,23,11.4,35.7c0.9,12.7-0.9,25.5-5.2,37.7c-4.5,12.3-11.8,23.6-21.6,33.9
		c-20.2,20.5-48.4,32.3-79.1,32.3c-30.4,0-58.9-11.6-79.1-32c-9.8-10-17-21.6-21.6-33.9c-4.3-12-6.1-24.8-5-37.7
		c1.1-12.7,5-24.8,10.9-35.7c5.9-10.7,14.1-20.2,24.1-28.4C274.8,193.9,299.8,185.3,325.9,185.3"/>
</g>
<g id="Isolation_Mode">
	<path class="st1" d="M328.2,217.1c-17.7,0-34.1,6.4-46.1,16.6c-12.3,10.5-20.7,25-21.4,41.8c-0.9,17,5.9,32.9,18,44.8
		c12.3,12,30,19.3,49.5,19.3s37-7.3,49.5-19.3c12-11.8,18.9-27.7,18-44.8c-0.9-16.8-9.3-31.4-21.4-41.8
		C362.3,223.5,345.9,217.1,328.2,217.1z"/>
</g>
</svg>
