<?xml version="1.0" encoding="utf-8"?>
<!-- Generator: Adobe Illustrator 28.0.0, SVG Export Plug-In . SVG Version: 6.00 Build 0)  -->
<svg version="1.1" id="Layer_1" xmlns="http://www.w3.org/2000/svg" xmlns:xlink="http://www.w3.org/1999/xlink" x="0px" y="0px"
	 viewBox="0 0 500 500" style="enable-background:new 0 0 500 500;" xml:space="preserve">
<style type="text/css">
	.st0{fill:#FFD43B;}
	.st1{fill:none;}
	.st2{fill:#3776AB;}
</style>
<path class="st0" d="M378.6,127.6v51.9c-0.4,40.3-32.7,73-73,74.1H188.9c-32.4,0.6-58.3,27-58.4,59.4v111.3
	c0,31.7,27.5,50.3,58.4,59.4c38,11.9,78.7,11.9,116.7,0c29.4-8.5,58.4-25.7,58.4-59.4v-44.5H247.3v-14.8h175.1
	c34,0,46.6-23.7,58.4-59.2c12-38.7,12-80.1,0-118.8c-8.4-33.8-24.4-59.2-58.4-59.2L378.6,127.6z M312.9,409.4
	c12.3-0.2,22.4,9.6,22.6,21.9s-9.6,22.4-21.9,22.6c-12.3,0.2-22.4-9.6-22.6-21.9c0-0.1,0-0.3,0-0.4
	C290.9,419.4,300.7,409.4,312.9,409.4C312.9,409.4,312.9,409.4,312.9,409.4z"/>
<path class="st1" d="M312.9,409.4c12.3-0.2,22.4,9.6,22.6,21.9s-9.6,22.4-21.9,22.6c-12.3,0.2-22.4-9.6-22.6-21.9c0-0.1,0-0.3,0-0.4
	C290.9,419.4,300.7,409.4,312.9,409.4C312.9,409.4,312.9,409.4,312.9,409.4z"/>
<path class="st2" d="M244.7,2.7c-18.7,0-37.4,1.6-55.8,4.8c-49.4,8.7-58.4,27-58.4,60.7v44.5h116.9v14.9H86.6
	c-35.5-0.7-66.3,24.4-73,59.2c-11,38.8-11,79.9,0,118.8c8.3,34.6,28.1,59.2,62.1,59.2h40.2v-53.4c0.9-39.9,33.1-71.9,73-72.6h116.7
	c32.5-0.2,58.7-26.8,58.4-59.3c0,0,0,0,0-0.1V68.2c-2-31.8-26.7-57.5-58.4-60.7C285.5,4.2,265.1,2.6,244.7,2.7z M181.5,38.5
	c12.3-0.2,22.4,9.6,22.6,21.9c0.2,12.3-9.6,22.4-21.9,22.6c-12.3,0.2-22.4-9.6-22.6-21.9c0-0.1,0-0.2,0-0.3
	C159.5,48.6,169.3,38.6,181.5,38.5z"/>
<g>
	<path class="st1" d="M181.5,38.5c12.3-0.2,22.4,9.6,22.6,21.9c0.2,12.3-9.6,22.4-21.9,22.6c-12.3,0.2-22.4-9.6-22.6-21.9
		c0-0.1,0-0.2,0-0.3C159.5,48.6,169.3,38.6,181.5,38.5z"/>
	<path class="st1" d="M-32.3-32.3h559.8v559.8H-32.3V-32.3z"/>
</g>
</svg>
