<?xml version="1.0" encoding="utf-8"?>
<!-- Generator: Adobe Illustrator 28.0.0, SVG Export Plug-In . SVG Version: 6.00 Build 0)  -->
<svg version="1.1" id="Layer_1" xmlns="http://www.w3.org/2000/svg" xmlns:xlink="http://www.w3.org/1999/xlink" x="0px" y="0px"
	 viewBox="0 0 500 500" style="enable-background:new 0 0 500 500;" xml:space="preserve">
<style type="text/css">
	.st0{fill:#56A8CA;}
	.st1{fill:#4B78CB;}
</style>
<path class="st0" d="M214.9,101.6l-83.5-42.2l-91.7,45.8l85.8,43.1L214.9,101.6z M253.2,120.9l87.6,44.2l-90.8,45.6L164,167.6
	L253.2,120.9z M370.2,60.1l90,45.1l-80.5,40.4l-87.7-44.3L370.2,60.1z M331.4,40.6L250.4,0l-80.1,40l83.5,42.1L331.4,40.6z
	 M268.1,389.5V500l98.1-49l-0.1-110.6L268.1,389.5z M366.1,301.8L366,192.4l-97.9,48.7v109.5L366.1,301.8z M483.9,281.3v111
	l-83.7,41.8l-0.1-110.5L483.9,281.3z M483.9,242.5V133.8l-83.8,41.7v109.6L483.9,242.5z"/>
<path class="st1" d="M233.5,241.1l-66.1-33.3v143.6L79.1,164c-1-2-4.9-4.2-5.9-4.7l-57-29.1V384l58.8,31.5V282.7l80.8,155.4
	c0.8,1.7,8.8,17.9,17.4,23.5c11.4,7.6,60.4,37,60.4,37L233.5,241.1z"/>
</svg>
